<svg width="110" height="26" viewBox="0 0 110 26" fill="none" xmlns="http://www.w3.org/2000/svg">
<path fill-rule="evenodd" clip-rule="evenodd" d="M73.2384 14.3082C72.5203 13.8274 71.6483 13.587 70.6225 13.587C69.5966 13.587 68.6733 13.8347 67.8526 14.3301C67.0319 14.8255 66.3871 15.5467 65.9181 16.4938C65.4638 17.4263 65.2366 18.5264 65.2366 19.794C65.2366 21.0616 65.4638 22.169 65.9181 23.116C66.3871 24.0485 67.0319 24.7625 67.8526 25.2579C68.6733 25.7533 69.5966 26.001 70.6225 26.001C71.6483 26.001 72.5203 25.7606 73.2384 25.2797C73.9712 24.7843 74.4988 24.1287 74.8212 23.3127V25.848H77.8989V9.00098H74.8212V16.2534C74.4988 15.4374 73.9712 14.7891 73.2384 14.3082ZM69.2595 17.215C69.8457 16.5885 70.6225 16.2752 71.5897 16.2752C72.5277 16.2752 73.2971 16.5958 73.8979 17.2369C74.5135 17.8634 74.8212 18.7158 74.8212 19.794C74.8212 20.8576 74.5135 21.71 73.8979 22.3511C73.2971 22.9776 72.5277 23.2909 71.5897 23.2909C70.6225 23.2909 69.8457 22.9849 69.2595 22.3729C68.6733 21.7464 68.3802 20.8868 68.3802 19.794C68.3802 18.7012 68.6733 17.8416 69.2595 17.215Z" fill="white"/>
<path d="M31.0996 16.0567C31.5539 15.2844 32.1548 14.6798 32.9022 14.2427C33.6497 13.791 34.485 13.5651 35.4083 13.5651V16.8653H34.507C32.2354 16.8653 31.0996 17.9144 31.0996 20.0125V25.848H28V13.74H31.0996V16.0567Z" fill="white"/>
<path fill-rule="evenodd" clip-rule="evenodd" d="M47.4779 19.335C47.4779 19.641 47.4412 19.9907 47.368 20.3841H38.4428C38.4868 21.4623 38.7799 22.2564 39.3221 22.7663C39.8644 23.2763 40.5385 23.5313 41.3446 23.5313C42.0627 23.5313 42.6563 23.3564 43.1252 23.0068C43.6089 22.6571 43.9166 22.1835 44.0485 21.5861H47.324C47.1628 22.4312 46.8184 23.1889 46.2908 23.8591C45.7632 24.5294 45.0817 25.0539 44.2464 25.4327C43.4257 25.8116 42.5097 26.001 41.4985 26.001C40.3114 26.001 39.2562 25.7533 38.3329 25.2579C37.4096 24.7479 36.6915 24.0267 36.1786 23.0942C35.6656 22.1617 35.4092 21.0616 35.4092 19.794C35.4092 18.5264 35.6656 17.4263 36.1786 16.4938C36.6915 15.5467 37.4096 14.8255 38.3329 14.3301C39.2562 13.8347 40.3114 13.587 41.4985 13.587C42.7002 13.587 43.7481 13.8347 44.6421 14.3301C45.5507 14.8255 46.2468 15.5103 46.7304 16.3845C47.2287 17.2442 47.4779 18.2277 47.4779 19.335ZM44.3563 19.029C44.4002 18.0383 44.1364 17.2879 43.5649 16.7779C43.008 16.268 42.3192 16.013 41.4985 16.013C40.6631 16.013 39.9597 16.268 39.3881 16.7779C38.8165 17.2879 38.5014 18.0383 38.4428 19.029H44.3563Z" fill="white"/>
<path d="M57.9659 14.8546C56.9253 14.0095 55.621 13.587 54.0529 13.587C52.8658 13.587 51.8106 13.8347 50.8873 14.3301C49.964 14.8255 49.2459 15.5467 48.733 16.4938C48.22 17.4263 47.9636 18.5264 47.9636 19.794C47.9636 21.0616 48.22 22.1617 48.733 23.0942C49.2459 24.0267 49.964 24.7479 50.8873 25.2579C51.8106 25.7533 52.8658 26.001 54.0529 26.001C55.621 26.001 56.9253 25.5784 57.9659 24.7334C59.0211 23.8883 59.6805 22.7372 59.9443 21.2802H56.6689C56.537 21.9213 56.2365 22.4312 55.7676 22.8101C55.2986 23.1743 54.705 23.3564 53.9869 23.3564C53.1662 23.3564 52.4774 23.0578 51.9205 22.4604C51.3783 21.8484 51.1071 20.9596 51.1071 19.794C51.1071 18.6284 51.3783 17.7468 51.9205 17.1495C52.4774 16.5375 53.1662 16.2315 53.9869 16.2315C54.705 16.2315 55.2986 16.4209 55.7676 16.7998C56.2365 17.164 56.537 17.6667 56.6689 18.3078H59.9443C59.6805 16.8508 59.0211 15.6997 57.9659 14.8546Z" fill="white"/>
<path d="M64.1472 13.74V25.848H61.0476V13.74H64.1472Z" fill="white"/>
<path d="M82.7083 13.74V25.848H79.6087V13.74H82.7083Z" fill="white"/>
<path d="M92.7888 13.74L89.7112 22.7663L86.6115 13.74H83.2921L87.7986 25.848H91.5797L96.0863 13.74H92.7888Z" fill="white"/>
<path d="M99.8096 13.74V25.848H96.71V13.74H99.8096Z" fill="white"/>
<path d="M110 23.269H104.021L109.78 16.166V13.74H100.767V16.2971H106.241L100.635 23.4002V25.848H110V23.269Z" fill="white"/>
<path d="M62.59 12.6436C63.6018 12.6436 64.422 11.8282 64.422 10.8223C64.422 9.8164 63.6018 9.00098 62.59 9.00098C61.5783 9.00098 60.7581 9.8164 60.7581 10.8223C60.7581 11.8282 61.5783 12.6436 62.59 12.6436Z" fill="white"/>
<path d="M82.9796 10.8223C82.9796 11.8282 82.1594 12.6436 81.1477 12.6436C80.1359 12.6436 79.3157 11.8282 79.3157 10.8223C79.3157 9.8164 80.1359 9.00098 81.1477 9.00098C82.1594 9.00098 82.9796 9.8164 82.9796 10.8223Z" fill="white"/>
<path d="M98.258 12.6436C99.2698 12.6436 100.09 11.8282 100.09 10.8223C100.09 9.8164 99.2698 9.00098 98.258 9.00098C97.2463 9.00098 96.4261 9.8164 96.4261 10.8223C96.4261 11.8282 97.2463 12.6436 98.258 12.6436Z" fill="white"/>
<rect y="13.001" width="13" height="13" fill="white"/>
<rect x="12" y="0.000976562" width="14" height="14" rx="7" fill="white"/>
</svg>
